<svg width="374" height="112" viewBox="0 0 374 112" fill="none" xmlns="http://www.w3.org/2000/svg">
<path d="M45.197 11.3281C33.3382 11.3281 22.5335 15.9399 14.364 23.4505C14.1005 23.714 13.9688 23.9775 13.9688 24.3728C13.9688 24.8999 14.2323 25.4269 14.7593 25.5587C18.0535 27.0081 21.2158 28.7211 24.1146 30.8293C29.3852 25.4269 36.8958 22.0011 45.0652 22.0011C61.404 21.8693 74.5805 35.0458 74.5805 51.2528C74.5805 67.4599 61.4041 80.5046 45.3288 80.5046C43.7476 80.5046 42.2982 80.3728 40.717 80.1093C38.7405 86.5658 35.4464 92.4952 30.9664 97.5023C30.7029 97.7658 30.5711 98.0293 30.5711 98.4246C30.5711 98.9517 30.9664 99.4787 31.4935 99.6105C35.8417 101.06 40.4535 101.719 45.3288 101.719C70.3641 101.719 90.6558 81.4269 90.6558 56.3917C90.5241 31.4881 70.2323 11.3281 45.197 11.3281Z" fill="#939598"/>
<path d="M15.9435 88.013C16.2071 73.1236 27.4071 61.0012 41.9012 59.2883C39.9247 47.5612 33.3365 37.5471 24.2447 30.6953C22.2682 32.8035 19.5012 33.9894 16.4706 33.9894C13.7035 33.9894 11.2 32.9353 9.35529 31.2224C9.09176 30.9588 8.82823 30.8271 8.43294 30.8271C8.03765 30.8271 7.64235 31.0906 7.37882 31.3541C2.63529 38.4694 0 47.0341 0 56.2577C0 69.0388 5.27059 80.6341 13.8353 88.8035C14.0988 88.9353 14.3624 89.0671 14.6259 89.0671C15.2847 89.3306 15.9435 88.8036 15.9435 88.013Z" fill="#DA1A32"/>
<path d="M41.9017 59.4219C34.1276 60.3442 27.4076 64.1654 22.6641 69.8313C27.1441 75.2336 33.4688 79.0548 40.7158 80.1089C41.9017 76.0242 42.5605 71.676 42.5605 67.196C42.5605 64.5607 42.297 61.9254 41.9017 59.4219Z" fill="black"/>
<path d="M53.2315 40.5767C53.2315 45.0567 49.6739 48.6144 45.1939 48.6144C40.8457 48.6144 37.1562 45.0567 37.1562 40.5767C37.1562 36.0967 40.7139 32.5391 45.1939 32.5391C49.6739 32.5391 53.2315 36.0967 53.2315 40.5767Z" fill="#BCBEC0"/>
<path d="M50.5959 40.5831C50.5959 43.4819 48.2241 45.8537 45.3253 45.8537C42.4265 45.8537 40.0547 43.4819 40.0547 40.5831C40.0547 37.6843 42.4265 35.3125 45.3253 35.3125C48.2241 35.3125 50.5959 37.5525 50.5959 40.5831Z" fill="black"/>
<path d="M45.1964 37.9422C45.1964 39.3916 44.0105 40.5775 42.5611 40.5775C41.1117 40.5775 39.9258 39.3916 39.9258 37.9422C39.9258 36.4928 41.1117 35.3069 42.5611 35.3069C44.0105 35.1751 45.1964 36.361 45.1964 37.9422Z" fill="white"/>
<path d="M45.1938 21.8672C55.4714 21.8672 63.7726 30.1684 63.7726 40.446C63.7726 50.7237 55.4714 59.1566 45.062 59.1566C43.8762 59.1566 42.822 59.1566 41.7679 59.2884C42.1632 61.7919 42.4267 64.4272 42.4267 67.0625C42.4267 71.5425 41.7679 75.8907 40.582 79.9754C42.0314 80.239 43.6126 80.3707 45.1938 80.3707C61.4009 80.5025 74.5773 67.326 74.5773 51.2507C74.5773 35.0437 61.4009 21.8672 45.1938 21.8672Z" fill="#BCBEC0"/>
<path d="M83.8009 91.8359C85.6456 91.8359 87.095 93.2853 87.095 95.1301C87.095 96.9748 85.6456 98.5559 83.8009 98.5559C81.9562 98.5559 80.375 97.1065 80.375 95.1301C80.5068 93.2853 81.9562 91.8359 83.8009 91.8359ZM83.8009 97.8971C85.2503 97.8971 86.5679 96.7112 86.5679 95.1301C86.5679 93.5489 85.3821 92.363 83.8009 92.363C82.2197 92.363 81.0338 93.5489 81.0338 95.1301C81.0338 96.7112 82.3515 97.8971 83.8009 97.8971ZM82.615 97.1065V93.1536H83.8009C84.855 93.1536 85.2503 93.6806 85.2503 94.3395C85.2503 94.8665 84.855 95.3936 84.3279 95.3936L85.5138 97.1065H84.855L83.6691 95.5254H83.0103V97.1065H82.615ZM83.1421 93.4171V94.9983H83.8009C84.1962 94.9983 84.7232 94.7348 84.7232 94.2077C84.7232 93.6806 84.3279 93.4171 83.6691 93.4171H83.1421Z" fill="#6D6E71"/>
<path d="M212.801 31.75C200.415 31.75 190.269 41.8959 190.269 54.2818V79.0535H201.601V67.7218H224.133V79.0535H235.464V54.2818C235.333 41.8959 225.187 31.75 212.801 31.75ZM201.469 56.5218V54.2818C201.469 48.0888 206.476 42.95 212.801 42.95C219.126 42.95 224.133 47.9571 224.133 54.2818V56.5218H201.469ZM312.02 81.2935C298.316 81.2935 287.248 70.0935 287.248 56.5218C287.248 42.95 298.316 31.75 312.02 31.75C325.723 31.75 336.792 42.8182 336.792 56.5218C336.792 70.2253 325.723 81.2935 312.02 81.2935ZM312.02 42.95C304.509 42.95 298.448 49.0112 298.448 56.5218C298.448 64.0324 304.509 70.0935 312.02 70.0935C319.53 70.0935 325.592 64.0324 325.592 56.5218C325.592 49.0112 319.53 42.95 312.02 42.95ZM184.999 79.0535H171.032L162.862 61.6606C161.413 61.9241 160.095 62.0559 158.514 62.0559V79.0535H147.182V62.1877C145.733 62.1877 144.283 62.0559 142.966 61.7924L134.928 79.0535H120.961L132.82 56.9171C127.944 52.8324 124.782 46.5076 124.782 39.6559V33.99H136.114V39.6559C136.114 45.8488 141.121 50.9876 147.446 50.9876V33.99H158.777V50.8559C164.97 50.8559 170.109 45.8488 170.109 39.5241V33.8582H181.441V39.5241C181.441 46.5076 178.279 52.7006 173.403 56.7853L184.999 79.0535ZM273.676 79.0535L265.639 61.7924C264.189 62.0559 262.872 62.1877 261.422 62.1877H255.756V79.0535H244.424V33.99H255.756V50.8559H261.422C267.615 50.8559 272.754 45.8488 272.754 39.5241V33.8582H284.086V39.5241C284.086 46.5076 280.923 52.7006 276.048 56.7853L287.907 78.9218L273.676 79.0535Z" fill="#DA1A32"/>
<path d="M341.931 33.9922C343.776 33.9922 345.225 35.4416 345.225 37.2863C345.225 39.131 343.776 40.7122 341.931 40.7122C340.086 40.7122 338.637 39.2628 338.637 37.2863C338.637 35.4416 340.086 33.9922 341.931 33.9922ZM341.931 40.0534C343.38 40.0534 344.698 38.8675 344.698 37.2863C344.698 35.7051 343.512 34.5192 341.931 34.5192C340.35 34.5192 339.164 35.7051 339.164 37.2863C339.164 38.8675 340.481 40.0534 341.931 40.0534ZM340.745 39.2628V35.3098H341.931C342.985 35.3098 343.38 35.8369 343.38 36.4957C343.38 37.0228 342.985 37.5498 342.458 37.5498L343.644 39.2628H342.985L341.799 37.6816H341.14V39.2628H340.745ZM341.272 35.7051V37.2863H341.931C342.458 37.2863 342.853 37.0228 342.853 36.4957C342.853 35.9687 342.458 35.7051 341.799 35.7051H341.272Z" fill="#DA1A32"/>
</svg>
